<?xml version="1.0" standalone="no"?><!DOCTYPE svg PUBLIC "-//W3C//DTD SVG 1.1//EN" "http://www.w3.org/Graphics/SVG/1.1/DTD/svg11.dtd"><svg t="1710219980648" class="icon" viewBox="0 0 1024 1024" version="1.1" xmlns="http://www.w3.org/2000/svg" p-id="9669" xmlns:xlink="http://www.w3.org/1999/xlink" width="200" height="200"><path d="M363.338208 917.657256l128.676009-183.758324-42.420542-60.578325c-0.054567-0.076394-0.120048-0.139692-0.172433-0.218268-0.128779-0.185528-0.244461-0.377605-0.373239-0.563134l-11.788698-16.837255c-34.252924 31.36741-87.296608 36.167141-129.509796 9.073434-36.76738-23.59704-81.239649-30.712604-125.227361-20.021798-47.296667 11.48967-88.409779 42.30486-112.796953 84.542056-23.322022 40.395008-29.51649 87.451579-17.446226 132.506626s40.966872 82.710781 81.36188 106.03062c78.5855 45.371536 177.334673 23.802213 229.697359-50.175632z m-143.82168 42.697743c-24.777875-0.002183-49.265452-6.582987-70.823862-19.028674-32.816715-18.947915-56.291525-49.538288-66.100525-86.144149-9.806817-36.603679-4.773539-74.83346 14.174376-107.650175 25.26898-43.767261 72.391032-70.954823 122.97701-70.954823 24.769144 0 49.256721 6.580804 70.817314 19.028674 32.816715 18.947915 56.291525 49.538288 66.100525 86.14415 9.806817 36.603679 4.775721 74.83346-14.172194 107.650174-25.271162 43.767261-72.391032 70.954823-122.972644 70.954823z" fill="#FF6E1D" p-id="9670"></path><path d="M841.482218 644.753586c-43.98553-10.686441-88.459981-3.575243-125.229544 20.021798-48.787443 31.319391-112.06357 20.061086-144.048681-25.620393l-24.452654-34.923008c-13.809867-19.70749-41.078189-24.509404-60.790045-10.708268-19.624548 13.742204-24.46575 40.820632-10.898161 60.515026l184.646678 263.690543c52.314667 73.910183 151.06384 95.483871 229.651523 50.110153 40.395008-23.322022 69.289432-60.977756 81.361879-106.03062s5.875796-92.113801-17.446225-132.508809c-24.387174-42.241562-65.498103-73.056752-112.79477-84.546422z m-317.893236-3.926656c-0.672268 0.676633-1.399103 1.309613-2.204515 1.874929a16.317776 16.317776 0 0 1-12.873494 2.558111 16.295949 16.295949 0 0 1-9.9225-6.587353 16.37016 16.37016 0 0 1 4.020512-22.798176 16.226103 16.226103 0 0 1 3.830617-1.970968 16.339603 16.339603 0 0 1 10.898162-0.076394 16.265391 16.265391 0 0 1 8.07158 6.067873c4.622933 6.600449 3.682195 15.418508-1.820362 20.931978zM941.407859 855.184358c-9.809 36.605861-33.28381 67.196234-66.100525 86.144149-21.560593 12.44787-46.04817 19.028674-70.817313 19.028675-50.585978 0-97.710213-27.187562-122.97701-70.954823-18.947915-32.816715-23.979011-71.048679-14.172194-107.650175 9.809-36.605861 33.28381-67.196234 66.100525-86.144149 21.560593-12.44787 46.04817-19.028674 70.817314-19.028674 50.585978 0 97.70803 27.187562 122.97701 70.954823 18.945732 32.814532 23.979011 71.046496 14.172193 107.650174z" fill="#F2484B" p-id="9671"></path><path d="M531.9836 524.633715l42.575513 60.805324 10.706085 15.289729L883.957327 174.183505c15.883421-22.68686 21.984034-50.19746 17.175572-77.470147-3.848079-21.822515-14.309703-41.399044-29.959576-56.49015l-339.189723 484.410507z" fill="#98D9D5" p-id="9672"></path><path d="M231.303043 152.295509L152.82886 40.225391c-15.647691 15.091105-26.109314 34.667634-29.959577 56.487967-4.808462 27.272687 1.289969 54.78547 17.175573 77.470147L440.319433 602.996581a75.940083 75.940083 0 0 1 27.862013-36.291554 75.944448 75.944448 0 0 1 43.649396-13.770579L268.860556 205.935068a16.37016 16.37016 0 0 1 4.020512-22.798177l-18.779848-26.818688a16.367978 16.367978 0 0 1-22.798177-4.022694z" fill="#FFFFFF" p-id="9673"></path><path d="M356.659183 781.750002c-9.809-36.605861-33.28381-67.196234-66.100525-86.14415-21.560593-12.44787-46.04817-19.028674-70.817314-19.028674-50.585978 0-97.70803 27.187562-122.97701 70.954823-18.947915 32.816715-23.981194 71.048679-14.174376 107.650175 9.809 36.605861 33.28381 67.196234 66.100525 86.144149 21.55841 12.445687 46.045987 19.026492 70.815131 19.028674 50.590344 0 97.710213-27.187562 122.979193-70.954823 18.950098-32.816715 23.981194-71.046496 14.174376-107.650174z m-191.596357 131.223205c-25.242787-14.575991-43.300165-38.107551-50.843535-66.262044-7.545553-28.154493-3.673464-57.564032 10.902527-82.806819 19.43902-33.667963 55.695651-54.584663 94.623892-54.584663 19.028674 0 37.856542 5.061654 54.447153 14.641472 25.242787 14.573808 43.300165 38.107551 50.845718 66.262044 7.54337 28.154493 3.673464 57.564032-10.902527 82.806819-19.441202 33.670146-55.697834 54.586845-94.623892 54.584662a109.090749 109.090749 0 0 1-54.449336-14.641471zM804.258656 676.577178c-24.769144 0-49.256721 6.580804-70.817314 19.028674-32.816715 18.947915-56.291525 49.538288-66.100525 86.14415-9.806817 36.603679-4.775721 74.83346 14.172194 107.650174 25.26898 43.767261 72.391032 70.954823 122.97701 70.954823 24.769144 0 49.256721-6.580804 70.817313-19.028674 32.816715-18.947915 56.291525-49.538288 66.100525-86.144149 9.806817-36.603679 4.773539-74.83346-14.174376-107.650175-25.266797-43.765078-72.388849-70.954823-122.974827-70.954823z m105.524236 170.133985c-7.54337 28.154493-25.600748 51.688236-50.843535 66.262044-16.590612 9.577635-35.418479 14.641471-54.447154 14.641471-38.926059 0-75.184873-20.9167-94.623892-54.584662-14.573808-25.242787-18.445897-54.652326-10.902527-82.806819 7.545553-28.154493 25.600748-51.690418 50.845718-66.262044 16.590612-9.579818 35.418479-14.641471 54.447154-14.641472 38.926059 0 75.184873 20.9167 94.623892 54.584663 14.571625 25.242787 18.443714 54.650143 10.900344 82.806819z" fill="#082947" p-id="9674"></path><path d="M982.630106 712.927665c-28.837674-49.952999-77.470147-86.395158-133.41899-99.98894-52.770849-12.818927-106.268533-4.195126-150.642581 24.284587-30.756257 19.735865-69.53171 15.518912-92.818809-8.669636L910.776015 192.96117c20.901421-29.848259 28.924982-66.050323 22.599552-101.933715-6.327613-35.885574-26.251189-67.161311-56.099448-88.060549a16.363612 16.363612 0 0 0-22.798177 4.020511L511.998909 496.095069 295.679244 187.15522a16.37016 16.37016 0 1 0-26.818688 18.777665l242.970286 347.001563a75.944448 75.944448 0 0 0-43.649396 13.770579 75.940083 75.940083 0 0 0-27.862013 36.291554L140.044856 174.183505c-15.883421-22.68686-21.984034-50.19746-17.175573-77.470147 3.848079-21.820332 14.309703-41.396862 29.959577-56.487967l78.474183 112.072301a16.365795 16.365795 0 0 0 22.798177 4.020511 16.37016 16.37016 0 0 0 4.020511-22.798177L169.52424 6.9896A16.37016 16.37016 0 0 0 146.726064 2.969089C116.877805 23.868327 96.954228 55.141881 90.626616 91.027455s1.698131 72.085455 22.599552 101.933715L418.250274 628.555858c-23.284916 24.190732-62.060369 28.405502-92.816626 8.669637-44.374048-28.481896-97.871732-37.103514-150.638216-24.284587-55.953208 13.591598-104.583498 50.035941-133.423355 99.988939-27.693946 47.968935-35.051787 103.850115-20.715892 157.349982 14.335895 53.502049 48.647751 98.218779 96.616686 125.912725 31.803948 18.362955 67.449426 27.807446 103.518346 27.805263a207.573633 207.573633 0 0 0 45.009211-4.945971c50.40918-11.190642 94.538767-40.482315 124.312815-82.544896l121.890031-174.06719 121.940233 174.137036c29.723846 41.994918 73.855615 71.286592 124.264796 82.477233a207.442672 207.442672 0 0 0 45.011393 4.945971c36.064555 0 71.714399-9.444491 103.518346-27.805263 47.968935-27.693946 82.280791-72.410676 96.616687-125.912725s6.971506-109.387594-20.724623-157.354347z m-10.906893 148.878969c-12.072448 45.055047-40.966872 82.710781-81.361879 106.03062-78.587683 45.373719-177.336856 23.80003-229.651523-50.110152l-184.646678-263.690543c-13.565406-19.692212-8.724204-46.772822 10.898161-60.515027 19.709673-13.801137 46.977995-8.999223 60.790045 10.708268l24.452654 34.923009c31.985111 45.683661 95.26342 56.939783 144.048681 25.620392 36.769563-23.59704 81.244015-30.706055 125.229544-20.021797 47.296667 11.48967 88.407597 42.30486 112.79477 84.542056 23.322022 40.399373 29.518673 87.458127 17.446225 132.513174zM133.640849 967.835071c-40.395008-23.322022-69.289432-60.977756-81.36188-106.03062s-5.875796-92.111618 17.446226-132.506626c24.387174-42.239379 65.500286-73.054569 112.796953-84.542056 43.987712-10.690806 88.459981-3.575243 125.227361 20.021797 42.21537 27.093707 95.259054 22.293976 129.509796-9.073434l11.788698 16.837256c0.128779 0.185528 0.242278 0.377605 0.373239 0.563133 0.054567 0.076394 0.117865 0.139692 0.172433 0.218269l42.420542 60.578324-128.676009 183.758324c-52.362686 73.975663-151.111859 95.544987-229.697359 50.175633zM883.957327 174.183505L585.265198 600.728768l-10.67771-15.250441-42.603888-60.844612 339.189723-484.412689c15.647691 15.091105 26.109314 34.667634 29.959576 56.490149 4.808462 27.27487-1.292151 54.78547-17.175572 77.47233z" fill="#082947" p-id="9675"></path><path d="M517.337764 613.824897a16.354882 16.354882 0 0 0-10.898162 0.076394 16.391987 16.391987 0 0 0-3.830617 1.970967 16.37016 16.37016 0 0 0-4.020512 22.798177 16.300314 16.300314 0 0 0 9.9225 6.587352 16.309045 16.309045 0 0 0 12.87786-2.566841 16.435641 16.435641 0 0 0 2.200149-1.866198c5.502557-5.511287 6.443295-14.329347 1.820362-20.931979a16.269757 16.269757 0 0 0-8.07158-6.067872z" fill="#082947" p-id="9676"></path></svg>